PathFileType	4	(X/Y/Z)	C:\Git\research_data\torsion_deformities_healthy_kinematics\simulations\TD07\pre\static_01\markers.trc
DataRate	CameraRate	NumFrames	NumMarkers	Units	OrigDataRate	OrigDataStartFrame	OrigNumFrames
200.000000	200.000000	4	34	mm	200.000000	90	120
Frame#	Time	C7			T10			CLAV			STRN			RBAK			LASI			RASI			SACR			RT1			RT2			RT3			RKNE			RS1			RS2			RS3			RANK			RHEE			RTOE			RM5D			LT1			LT2			LT3			LKNE			LS1			LS2			LS3			LANK			LHEE			LTOE			LM5D			RANKM			LANKM			RKNEM			LKNEM			
		X1	Y1	Z1	X2	Y2	Z2	X3	Y3	Z3	X4	Y4	Z4	X5	Y5	Z5	X6	Y6	Z6	X7	Y7	Z7	X8	Y8	Z8	X9	Y9	Z9	X10	Y10	Z10	X11	Y11	Z11	X12	Y12	Z12	X13	Y13	Z13	X14	Y14	Z14	X15	Y15	Z15	X16	Y16	Z16	X17	Y17	Z17	X18	Y18	Z18	X19	Y19	Z19	X20	Y20	Z20	X21	Y21	Z21	X22	Y22	Z22	X23	Y23	Z23	X24	Y24	Z24	X25	Y25	Z25	X26	Y26	Z26	X27	Y27	Z27	X28	Y28	Z28	X29	Y29	Z29	X30	Y30	Z30	X31	Y31	Z31	X32	Y32	Z32	X33	Y33	Z33	X34	Y34	Z34	

91	0.45	653.8235473632811	1228.6884765625	347.6245422363281	663.8345336914061	1004.95654296875	344.5636596679687	667.6929931640624	1200.57275390625	220.8914489746093	667.7284545898436	1068.474853515625	152.3875274658203	756.5818481445311	1096.021484375	358.2482299804687	546.2708740234375	797.5744018554688	208.0957641601562	802.0534057617188	833.1093139648438	197.2465362548828	673.4325561523438	853.8522338867188	356.5034179687499	864.53515625	607.5828247070312	308.3742980957031	862.0156860351562	547.219970703125	337.0059509277343	875.161865234375	545.8045654296875	287.3588562011718	881.2587280273438	442.5057983398438	298.7241821289062	915.6362915039062	350.6004028320313	351.0292968749999	922.166259765625	287.8318176269532	376.2529296874999	937.7225952148438	293.2295532226563	326.1867065429687	962.1671142578125	87.41579437255865	321.9140319824218	922.9609985351562	45.92260742187506	358.8233337402343	978.8421020507812	47.52324295043951	167.5013580322265	1003.2333984375	34.44047164916999	257.5182800292968	481.7615661621093	615.7845458984375	255.8369140625	472.6263427734374	559.6259765625	291.2403564453124	481.0352783203124	551.4674682617188	240.5744171142578	452.5815124511719	421.9933166503906	304.7972412109375	400.7223815917969	310.1878051757812	318.8135070800781	386.1021728515625	255.4898681640625	353.3919677734375	381.2275390625	248.748764038086	302.784423828125	349.0458984375	71.23433685302737	335.0015563964844	387.255859375	43.3537178039551	357.6020202636719	297.8336791992188	42.67368698120119	178.6838684082031	286.2760314941406	29.76314735412599	273.3347778320312	888.2680053710938	74.95180511474615	278.3623352050781	407.3502502441406	67.4919128417969	271.8107299804688	792.3665771484375	404.7311096191407	267.7800903320312	541.909423828125	383.3295288085938	261.3834228515624	
92	0.455	653.8319702148436	1228.698974609375	347.5974121093749	663.8639526367186	1004.958374023438	344.5393981933593	667.6716918945311	1200.57958984375	220.8615112304687	667.6636352539061	1068.4892578125	152.3405151367187	756.5875854492186	1096.005737304688	358.1838073730468	546.2431030273438	797.5840454101562	208.0861053466797	802.0219116210938	833.1074829101562	197.1465148925781	673.4625854492188	853.849365234375	356.4474487304687	864.5208740234375	607.5922241210938	308.2875366210937	862.0189819335938	547.2293701171875	336.9283447265624	875.1513671875	545.8063354492188	287.2789916992187	881.2515258789062	442.5111389160157	298.6699829101562	915.629638671875	350.6103515625001	350.9754028320312	922.1611328125	287.8569641113282	376.2155151367187	937.7196655273438	293.2338256835938	326.1525573730468	962.1600341796875	87.41869354248053	321.9123840332031	922.9590454101562	45.9228134155274	358.8210449218749	978.8397216796875	47.51834869384771	167.5019073486328	1003.239562988281	34.44113159179694	257.5051879882812	481.7465209960937	615.7896728515625	255.8269958496093	472.6198730468749	559.6297607421875	291.2279968261718	480.9953308105468	551.4828491210938	240.5540924072265	452.5774536132812	421.9953308105469	304.7780456542969	400.7213439941406	310.1892700195312	318.8004150390625	386.1037902832031	255.4905548095703	353.3818054199219	381.226806640625	248.7486572265625	302.7748107910156	349.0537719726562	71.23584747314456	334.9987182617188	387.2581787109375	43.35708999633791	357.6014709472656	297.8321838378906	42.67335891723635	178.6827087402343	286.277587890625	29.76486587524416	273.3336791992188	888.2620849609375	74.94915008544928	278.3604736328124	407.3527526855469	67.48990631103518	271.8065795898438	792.3576049804688	404.7290344238282	267.7445678710937	541.9024658203125	383.3313903808594	261.3572387695312	
93	0.46	653.8410644531249	1228.708984375	347.5702819824218	663.8934936523436	1004.960083007812	344.5146789550781	667.6505737304686	1200.586303710938	220.8319854736328	667.5981445312499	1068.503662109375	152.2931823730468	756.5932006835936	1095.98876953125	358.1186828613281	546.2149047851562	797.5936279296875	208.0752716064453	801.989990234375	833.105712890625	197.0441894531249	673.4930419921875	853.8463745117188	356.3897399902343	864.506591796875	607.6016845703125	308.1988525390624	862.02392578125	547.23876953125	336.8471984863281	875.1406860351562	545.8080444335938	287.1973266601562	881.2443237304688	442.5165100097657	298.6143798828124	915.6227416992188	350.6205444335938	350.9200439453124	922.15576171875	287.8826904296876	376.1772766113281	937.716796875	293.2380981445313	326.1176147460937	962.15283203125	87.42162322998053	321.9107360839843	922.9569702148438	45.92302703857428	358.8186645507812	978.8372802734375	47.51333618164068	167.5024414062499	1003.245788574219	34.44179534912116	257.4917602539062	481.7314453124999	615.7947998046875	255.8160095214843	472.6134948730468	559.633544921875	291.2146301269531	480.9547729492187	551.4984130859375	240.5325775146484	452.5735168457031	421.9973449707031	304.7580871582031	400.7204284667969	310.1907958984375	318.7868041992188	386.1054382324219	255.4912109375	353.371337890625	381.2261352539062	248.74853515625	302.7648010253906	349.0617065429688	71.23740386962893	334.9958190917969	387.2604675292969	43.3605537414551	357.6009216308594	297.8306579589844	42.67303848266604	178.6815185546875	286.2791748046875	29.76664161682131	273.33251953125	888.2559814453125	74.94642639160162	278.3585205078124	407.3553161621094	67.48782348632815	271.8023376464844	792.3486328125	404.7269592285157	267.7079162597656	541.8955078125	383.3331298828126	261.3302001953124	
94	0.465	653.8508300781249	1228.718383789062	347.5431518554687	663.9230346679686	1004.961669921875	344.4894409179687	667.6295776367186	1200.592895507812	220.8028564453125	667.5317993164061	1068.51806640625	152.2455749511718	756.5986938476561	1095.970703125	358.0528564453124	546.1864013671875	797.6031494140625	208.0632629394531	801.9576416015625	833.10400390625	196.9395904541015	673.5238647460938	853.8431396484375	356.3303222656249	864.4922485351562	607.6112060546875	308.1081848144531	862.0304565429688	547.2482299804688	336.7624511718749	875.1299438476562	545.8097534179688	287.1138610839843	881.237060546875	442.5219116210938	298.5573730468749	915.6156005859375	350.6309814453126	350.8631896972656	922.150146484375	287.9089965820313	376.1382751464843	937.7138671875	293.2423095703126	326.0818786621093	962.1453857421875	87.42457580566412	321.9090881347656	922.9548950195312	45.92324829101568	358.8162231445312	978.8348388671875	47.50821304321295	167.5029754638671	1003.252258300781	34.44246292114264	257.4780578613281	481.7162780761718	615.7998046875	255.803955078125	472.6071777343749	559.6373291015625	291.2002258300781	480.9136962890624	551.51416015625	240.5098724365234	452.5696105957031	421.9993286132812	304.7373657226562	400.7195739746094	310.1923217773438	318.772705078125	386.1071472167969	255.4918060302735	353.3605651855469	381.2255249023438	248.7483978271485	302.7544555664062	349.0697326660156	71.23902130126956	334.9928283691406	387.2627258300781	43.36412048339846	357.6004333496094	297.8291320800781	42.67272949218752	178.6802978515625	286.28076171875	29.76847076416017	273.3313293457031	888.2498168945312	74.94363403320318	278.3564453124999	407.3579406738281	67.48566436767581	271.7980041503906	792.3396606445312	404.7248535156251	267.6701660156249	541.8886108398438	383.3347778320313	261.3022460937499	
